<svg width="272" height="35" viewBox="0 0 272 35" fill="none" xmlns="http://www.w3.org/2000/svg">
<g clip-path="url(#clip0_4_21)">
<path d="M153.091 31.4975V3.94275H173.603C177.13 3.99369 180.495 5.46704 182.971 8.04424C185.448 10.6214 186.836 14.0954 186.836 17.7147C186.836 21.334 185.448 24.8079 182.971 27.3851C180.495 29.9623 177.13 31.4357 173.603 31.4866L153.091 31.4975ZM154.435 5.31899V30.1186H173.609C176.813 30.1186 179.886 28.8122 182.153 26.4867C184.419 24.1613 185.692 21.0074 185.692 17.7188C185.692 14.4301 184.419 11.2762 182.153 8.95082C179.886 6.62542 176.813 5.31899 173.609 5.31899H154.435Z" fill="black"/>
<path d="M30.8637 3.94275H0V5.31899H14.7493V31.4975H16.0904V5.31899H30.8637V3.94275Z" fill="black"/>
<path d="M55.5977 7.19122C56.2148 7.79314 56.7013 8.52157 57.0255 9.32917C57.3501 10.1368 57.5051 11.0054 57.4807 11.8786C57.4807 15.0126 55.6537 17.449 52.7005 18.2366L51.872 18.46L58.7767 31.4811H60.3036L53.8583 19.3076C56.9017 18.1466 58.8217 15.3233 58.8217 11.8786C58.8442 10.8217 58.6522 9.77165 58.2579 8.79492C57.864 7.81818 57.2765 6.93614 56.5325 6.20472C55.0324 4.7031 53.1386 3.94275 50.9055 3.94275H33.5164V31.4975H34.8442V5.31899H50.8922C52.8015 5.31899 54.3364 5.93219 55.5977 7.19122Z" fill="black"/>
<path d="M90.2514 14.3722C80.8248 17.1154 72.1874 22.1653 65.0815 29.0884V30.9961C72.3147 23.6276 81.2789 18.2997 91.1067 15.5277L90.2514 14.3722Z" fill="black"/>
<path d="M120.831 13.6499C111.701 11.4563 102.2 11.4479 93.0663 13.6254L93.9455 14.8218C102.509 12.8888 111.381 12.8962 119.941 14.8436L120.831 13.6499Z" fill="black"/>
<path d="M129.788 16.5769C127.78 15.7375 125.73 15.0097 123.646 14.3967L122.778 15.5631C132.451 18.3081 141.285 23.5326 148.449 30.7453V28.8377C143.019 23.6051 136.692 19.4482 129.788 16.5769Z" fill="black"/>
<path d="M64.9192 31.4975L84.4514 5.33538L103.673 31.4975H105.354L84.4594 3.05981L63.2301 31.4975H64.9192Z" fill="black"/>
<path d="M110.041 31.4975L129.573 5.33538L148.792 31.4975H150.473L129.581 3.05981L108.349 31.4975H110.041Z" fill="black"/>
<path d="M199.825 0V34.6779H198.826V0H199.825Z" fill="#D2A877"/>
<path d="M216.346 14.2792H218.388L219.479 4.28375H218.136L217.353 12.223H217.325L216.57 4.28375H215.087L214.36 12.1658H214.332L213.521 4.28375H212.024L213.115 14.2792H215.227L215.773 8.95302H215.801L216.346 14.2792Z" fill="#D2A877"/>
<path d="M223.053 14.2792H224.592V4.28375H223.053V14.2792Z" fill="#D2A877"/>
<path d="M228.318 6.68267C228.318 7.82499 228.724 8.65321 230.011 9.80981C231.018 10.7094 231.326 11.252 231.326 11.9802C231.326 12.6942 231.018 12.9512 230.528 12.9512C230.039 12.9512 229.731 12.6942 229.731 11.9802V11.2663H228.276V11.8803C228.276 13.4796 229.06 14.3934 230.57 14.3934C232.081 14.3934 232.864 13.4796 232.864 11.8803C232.864 10.738 232.459 9.90975 231.172 8.75316C230.165 7.85358 229.857 7.31096 229.857 6.58273C229.857 5.86877 230.137 5.59748 230.626 5.59748C231.116 5.59748 231.395 5.86877 231.395 6.58273V6.99682H232.85V6.68267C232.85 5.08341 232.081 4.16956 230.584 4.16956C229.088 4.16956 228.318 5.08341 228.318 6.68267Z" fill="#D2A877"/>
<path d="M238.082 5.71167H240.74V4.28375H236.543V14.2792H240.74V12.8512H238.082V9.92404H240.194V8.49612H238.082V5.71167Z" fill="#D2A877"/>
<path d="M249.275 14.2792C249.121 13.9079 249.107 13.5509 249.107 13.0654V11.5233C249.107 10.4809 248.855 9.73839 248.086 9.40997V9.38142C248.771 9.05301 249.093 8.39614 249.093 7.36807V6.58271C249.093 5.04057 248.407 4.28375 246.813 4.28375H244.491V14.2792H246.029V10.2096H246.561C247.26 10.2096 247.568 10.5523 247.568 11.4805V13.0512C247.568 13.8651 247.624 14.0222 247.708 14.2792H249.275ZM246.771 5.71167C247.316 5.71167 247.554 6.02582 247.554 6.73978V7.72503C247.554 8.52466 247.204 8.78168 246.631 8.78168H246.029V5.71167H246.771Z" fill="#D2A877"/>
<path d="M212.374 31.6182H213.912V21.6227H212.374V31.6182Z" fill="#D2A877"/>
<path d="M221.122 31.6182H222.702V21.6227H221.332V27.6057H221.304L219.751 21.6227H217.821V31.6182H219.206V24.3786H219.234L221.122 31.6182Z" fill="#D2A877"/>
<path d="M227.749 21.6227H226.196L227.707 31.6182H230.001L231.512 21.6227H230.099L228.938 29.7761H228.91L227.749 21.6227Z" fill="#D2A877"/>
<path d="M236.566 23.0507H239.224V21.6227H235.027V31.6182H239.224V30.1902H236.566V27.263H238.678V25.8351H236.566V23.0507Z" fill="#D2A877"/>
<path d="M242.779 24.0216C242.779 25.1639 243.184 25.9921 244.471 27.1487C245.478 28.0483 245.786 28.5909 245.786 29.3192C245.786 30.0331 245.478 30.2901 244.989 30.2901C244.499 30.2901 244.191 30.0331 244.191 29.3192V28.6052H242.737V29.2192C242.737 30.8185 243.52 31.7323 245.031 31.7323C246.541 31.7323 247.325 30.8185 247.325 29.2192C247.325 28.0769 246.919 27.2487 245.632 26.0921C244.625 25.1925 244.317 24.6499 244.317 23.9217C244.317 23.2077 244.597 22.9364 245.086 22.9364C245.576 22.9364 245.856 23.2077 245.856 23.9217V24.3357H247.311V24.0216C247.311 22.4223 246.541 21.5085 245.045 21.5085C243.548 21.5085 242.779 22.4223 242.779 24.0216Z" fill="#D2A877"/>
<path d="M250.556 23.0507H252.165V31.6182H253.703V23.0507H255.312V21.6227H250.556V23.0507Z" fill="#D2A877"/>
<path d="M260.2 23.9217C260.2 23.2077 260.508 22.9364 260.997 22.9364C261.487 22.9364 261.795 23.2077 261.795 23.9217V29.3192C261.795 30.0331 261.487 30.3044 260.997 30.3044C260.508 30.3044 260.2 30.0331 260.2 29.3192V23.9217ZM258.661 29.2192C258.661 30.8185 259.486 31.7323 260.997 31.7323C262.508 31.7323 263.333 30.8185 263.333 29.2192V24.0216C263.333 22.4223 262.508 21.5085 260.997 21.5085C259.486 21.5085 258.661 22.4223 258.661 24.0216V29.2192Z" fill="#D2A877"/>
<path d="M271.914 31.6182C271.761 31.2469 271.747 30.8899 271.747 30.4044V28.8623C271.747 27.8199 271.495 27.0774 270.725 26.749V26.7204C271.411 26.392 271.733 25.7351 271.733 24.7071V23.9217C271.733 22.3796 271.047 21.6227 269.453 21.6227H267.131V31.6182H268.669V27.5486H269.201C269.9 27.5486 270.208 27.8913 270.208 28.8194V30.3901C270.208 31.2041 270.264 31.3611 270.348 31.6182H271.914ZM269.411 23.0507C269.956 23.0507 270.194 23.3648 270.194 24.0788V25.064C270.194 25.8637 269.844 26.1207 269.271 26.1207H268.669V23.0507H269.411Z" fill="#D2A877"/>
</g>
<defs>
<linearGradient id="paint0_linear_4_21" x1="65.0389" y1="22.6923" x2="148.93" y2="22.6923" gradientUnits="userSpaceOnUse">
<stop stop-color="black"/>
<stop offset="0.5" stop-color="black" stop-opacity="0.15"/>
<stop offset="1" stop-color="black"/>
</linearGradient>
<linearGradient id="paint1_linear_4_21" x1="65.0389" y1="13.421" x2="148.93" y2="13.421" gradientUnits="userSpaceOnUse">
<stop stop-color="black"/>
<stop offset="0.5" stop-color="black" stop-opacity="0.15"/>
<stop offset="1" stop-color="black"/>
</linearGradient>
<linearGradient id="paint2_linear_4_21" x1="65.0389" y1="22.5751" x2="148.93" y2="22.5751" gradientUnits="userSpaceOnUse">
<stop stop-color="black"/>
<stop offset="0.5" stop-color="black" stop-opacity="0.15"/>
<stop offset="1" stop-color="black"/>
</linearGradient>
<clipPath id="clip0_4_21">
<rect width="272" height="35" fill="black"/>
</clipPath>
</defs>
</svg>